<svg width="1101" height="1101" viewBox="0 0 1101 1101" fill="none" xmlns="http://www.w3.org/2000/svg">
<path d="M516.291 0.772599C490.424 2.50593 469.357 5.30593 442.157 10.7726C304.424 38.5059 194.291 107.439 110.824 218.239C79.8906 259.439 58.4239 297.306 38.4239 346.773C22.8239 385.173 14.1573 415.306 6.82393 455.439C-1.17607 499.706 -2.24274 567.306 4.15726 620.373C16.8239 723.973 68.1573 834.506 142.157 917.439C160.157 937.706 161.491 939.039 180.024 956.106C236.691 1007.97 304.157 1047.44 381.491 1073.84C447.224 1096.24 527.624 1104.91 603.491 1097.97C652.824 1093.44 709.357 1079.71 754.824 1061.17C943.091 984.639 1070.69 818.506 1097.76 614.773C1100.29 595.039 1100.69 586.239 1100.69 546.773C1100.69 497.839 1099.22 481.306 1091.49 440.639C1065.09 303.839 976.957 171.839 859.491 93.5726C788.557 46.3726 713.224 17.3059 630.824 5.43927C597.624 0.772599 549.357 -1.2274 516.291 0.772599ZM611.491 71.3059C700.024 83.4393 773.757 113.039 842.157 164.106C899.224 206.639 948.424 265.173 980.824 329.439C1032.02 430.373 1046.29 546.639 1021.22 656.773C1007.36 717.706 984.557 771.173 950.691 821.439C933.491 847.039 918.024 865.573 894.157 889.439C856.824 926.906 822.291 952.373 776.824 976.506C721.224 1005.84 666.557 1022.91 605.091 1030.24C579.891 1033.17 541.091 1034.11 519.624 1032.24L506.424 1031.17L507.224 753.573C507.757 601.039 508.557 384.506 509.091 272.506L509.891 68.9059L512.691 68.2393C514.291 67.9726 532.557 67.8393 553.491 68.1059C582.024 68.5059 596.424 69.3059 611.491 71.3059ZM437.757 269.706C438.024 374.506 438.024 460.373 437.891 460.639C437.624 461.039 372.691 374.239 280.157 249.973C257.091 218.906 236.424 191.573 234.424 189.306L230.691 184.906L241.091 176.106C280.291 142.506 336.691 111.173 390.291 92.9059C403.491 88.3726 432.957 79.8393 436.424 79.5726C436.957 79.4393 437.624 165.039 437.757 269.706ZM262.424 341.706C336.957 441.306 419.491 552.106 431.491 568.773L436.824 576.106V797.706C436.824 937.573 436.291 1019.44 435.491 1019.44C434.824 1019.44 427.757 1017.57 419.757 1015.31C370.957 1001.57 313.624 973.706 271.491 943.306C206.957 896.906 153.624 834.373 118.424 763.973C92.9573 713.039 77.4906 661.173 70.5573 602.773C68.1573 582.906 68.1573 509.839 70.5573 492.773C81.6239 412.773 102.557 353.706 142.024 290.773C154.291 271.173 179.891 235.573 181.757 235.439C182.291 235.439 218.557 283.306 262.424 341.706Z" fill="black"/>
<path d="M641.89 292.373L564.156 292.773V579.44V866.106H660.556C762.556 866.106 786.69 865.173 802.823 860.64C836.956 851.306 884.69 817.706 904.023 789.573C919.49 767.306 928.023 734.106 928.156 697.306C928.156 659.706 917.356 629.173 894.423 601.973C884.823 590.64 867.756 575.44 856.156 567.973L848.823 563.173L864.29 547.573C885.756 526.106 896.423 506.773 903.09 477.84C906.956 461.04 907.223 433.973 903.623 418.773C900.156 403.706 893.756 383.973 889.756 376.106C873.356 343.44 836.823 313.84 796.156 300.24C770.556 291.706 768.69 291.573 641.89 292.373ZM765.756 363.973C790.69 368.773 814.556 385.973 825.09 406.64C831.623 419.573 833.756 427.573 834.423 442.773C836.423 485.306 815.223 515.306 773.223 529.573L763.623 532.773H698.556H633.49V447.44V362.106H694.69C741.756 362.106 758.156 362.506 765.756 363.973ZM781.49 604.24C816.556 613.04 846.956 641.173 855.623 672.773C858.423 683.306 859.49 704.906 857.623 716.506C854.423 737.44 847.356 750.773 831.356 766.906C822.423 775.973 818.556 778.906 808.023 783.973C783.756 795.706 782.69 795.84 702.956 796.373L633.09 796.906L634.156 699.84C634.69 646.506 635.223 602.506 635.49 602.106C635.756 601.706 666.69 601.573 704.423 601.84C762.423 602.106 774.156 602.506 781.49 604.24Z" fill="black"/>
</svg>
